<svg xmlns="http://www.w3.org/2000/svg" viewBox="0 0 32 32" width="32" height="32">
  <defs>
    <linearGradient id="fvGrad" x1="0%" y1="0%" x2="100%" y2="100%">
      <stop offset="0%" stop-color="#C4956A"/>
      <stop offset="100%" stop-color="#D4845A"/>
    </linearGradient>
    <linearGradient id="fvInner" x1="50%" y1="0%" x2="50%" y2="100%">
      <stop offset="0%" stop-color="#D4845A" stop-opacity="0.8"/>
      <stop offset="100%" stop-color="#C4956A" stop-opacity="0.1"/>
    </linearGradient>
  </defs>
  <rect width="32" height="32" rx="7" fill="url(#fvGrad)"/>
  <path d="M16 4 C16 4 9 12 9 18 C9 22 12 25.5 16 25.5 C20 25.5 23 22 23 18 C23 12 16 4 16 4Z" fill="white" opacity="0.95"/>
  <path d="M16 11 C16 11 12.5 16 12.5 18.8 C12.5 20.7 14.1 22.2 16 22.2 C17.9 22.2 19.5 20.7 19.5 18.8 C19.5 16 16 11 16 11Z" fill="url(#fvInner)"/>
</svg>
